<svg width="2048" height="1363" viewBox="0 0 2048 1363" fill="none" xmlns="http://www.w3.org/2000/svg">
<g clip-path="url(#clip0_7:89)">
<path opacity="0.1" d="M1193.75 271.844C1073.27 267.561 958.517 228.663 849.016 186.189C739.515 143.715 630.907 96.4553 513.308 73.9056C437.67 59.4001 351.16 57.3518 290.228 97.9077C231.568 137.011 212.617 204.325 202.434 266.854C194.764 313.89 190.259 363.383 211.258 407.421C225.853 437.997 251.73 463.693 269.639 492.984C331.948 594.876 287.901 720.529 220.399 820.02C188.751 866.702 151.984 911.261 127.54 960.904C103.097 1010.55 91.7971 1067.51 113.187 1118.19C134.373 1168.47 184.879 1206.16 239.592 1232.69C350.713 1286.58 481.604 1302.02 609.331 1310.75C891.982 1330.1 1176.12 1321.72 1459.52 1313.34C1564.4 1310.23 1669.74 1307.08 1772.91 1290.86C1830.21 1281.85 1889.35 1267.55 1930.96 1233.05C1983.76 1189.23 1996.84 1115.03 1961.45 1060.1C1902.1 967.943 1738.06 945.058 1696.52 846.144C1673.7 791.716 1697.14 731.068 1730.33 680.588C1801.52 572.289 1920.83 477.268 1927.11 353.459C1931.42 268.436 1874.07 183.284 1785.38 143.044C1692.43 100.868 1563.51 106.175 1494.96 175.984C1424.26 247.786 1300.15 275.438 1193.75 271.844Z" fill="#3B82F6"/>
<path d="M318.823 1363C394.094 1363 455.113 1351.26 455.113 1336.78C455.113 1322.3 394.094 1310.56 318.823 1310.56C243.552 1310.56 182.533 1322.3 182.533 1336.78C182.533 1351.26 243.552 1363 318.823 1363Z" fill="#3B82F6"/>
<path d="M316.533 1346.43C325.293 1346.43 332.394 1337.12 332.394 1325.65C332.394 1314.17 325.293 1304.87 316.533 1304.87C307.773 1304.87 300.672 1314.17 300.672 1325.65C300.672 1337.12 307.773 1346.43 316.533 1346.43Z" fill="#3F3D56"/>
<path d="M316.533 1321.03C325.293 1321.03 332.394 1311.72 332.394 1300.25C332.394 1288.77 325.293 1279.47 316.533 1279.47C307.773 1279.47 300.672 1288.77 300.672 1300.25C300.672 1311.72 307.773 1321.03 316.533 1321.03Z" fill="#3F3D56"/>
<path d="M316.533 1295.63C325.293 1295.63 332.394 1286.33 332.394 1274.85C332.394 1263.37 325.293 1254.07 316.533 1254.07C307.773 1254.07 300.672 1263.37 300.672 1274.85C300.672 1286.33 307.773 1295.63 316.533 1295.63Z" fill="#3F3D56"/>
<path d="M316.533 1270.25C325.293 1270.25 332.394 1260.95 332.394 1249.47C332.394 1237.99 325.293 1228.69 316.533 1228.69C307.773 1228.69 300.672 1237.99 300.672 1249.47C300.672 1260.95 307.773 1270.25 316.533 1270.25Z" fill="#3F3D56"/>
<path d="M316.533 1244.85C325.293 1244.85 332.394 1235.55 332.394 1224.07C332.394 1212.59 325.293 1203.29 316.533 1203.29C307.773 1203.29 300.672 1212.59 300.672 1224.07C300.672 1235.55 307.773 1244.85 316.533 1244.85Z" fill="#3F3D56"/>
<path d="M316.533 1219.45C325.293 1219.45 332.394 1210.15 332.394 1198.67C332.394 1187.2 325.293 1177.89 316.533 1177.89C307.773 1177.89 300.672 1187.2 300.672 1198.67C300.672 1210.15 307.773 1219.45 316.533 1219.45Z" fill="#3F3D56"/>
<path d="M316.533 1194.05C325.293 1194.05 332.394 1184.75 332.394 1173.27C332.394 1161.8 325.293 1152.49 316.533 1152.49C307.773 1152.49 300.672 1161.8 300.672 1173.27C300.672 1184.75 307.773 1194.05 316.533 1194.05Z" fill="#3F3D56"/>
<path d="M375.938 999.486C378.112 996.729 380.09 993.823 381.858 990.79L340.157 983.938L385.246 984.273C389.575 974.86 391.937 964.662 392.186 954.304C392.436 943.946 390.569 933.646 386.698 924.035L326.214 955.429L382.063 914.464C376.831 905.439 369.799 897.588 361.403 891.398C353.007 885.209 343.428 880.814 333.261 878.487C323.094 876.16 312.557 875.951 302.305 877.873C292.054 879.794 282.308 883.806 273.673 889.657C265.038 895.508 257.7 903.074 252.114 911.885C246.529 920.695 242.816 930.56 241.207 940.868C239.597 951.175 240.125 961.703 242.759 971.797C245.393 981.892 250.075 991.336 256.514 999.542C253.136 1003.84 250.228 1008.49 247.839 1013.41L301.975 1041.53L244.265 1022.17C240.205 1034.15 239.199 1046.95 241.338 1059.42C243.477 1071.88 248.694 1083.62 256.514 1093.56C247.694 1104.77 242.207 1118.24 240.68 1132.43C239.153 1146.62 241.649 1160.95 247.881 1173.78C254.112 1186.62 263.83 1197.44 275.921 1205.01C288.012 1212.58 301.989 1216.6 316.254 1216.6C330.519 1216.6 344.496 1212.58 356.588 1205.01C368.679 1197.44 378.396 1186.62 384.628 1173.78C390.86 1160.95 393.355 1146.62 391.828 1132.43C390.301 1118.24 384.814 1104.77 375.994 1093.56C386.534 1080.16 392.264 1063.6 392.264 1046.55C392.264 1029.5 386.534 1012.94 375.994 999.542L375.938 999.486Z" fill="#3B82F6"/>
<path opacity="0.1" d="M240.262 1046.47C240.24 1063.52 245.973 1080.08 256.533 1093.46C247.713 1104.68 242.226 1118.15 240.699 1132.34C239.172 1146.52 241.667 1160.85 247.899 1173.69C254.131 1186.52 263.848 1197.34 275.939 1204.92C288.03 1212.49 302.008 1216.5 316.273 1216.5C330.538 1216.5 344.515 1212.49 356.606 1204.92C368.697 1197.34 378.414 1186.52 384.646 1173.69C390.878 1160.85 393.373 1146.52 391.847 1132.34C390.32 1118.15 384.833 1104.68 376.012 1093.46C386.14 1080.56 240.262 1037.96 240.262 1046.47Z" fill="black"/>
<path d="M979.125 1020.4C980.28 1035.29 986.013 1050.71 998.077 1059.5C1010.14 1068.29 1029.33 1068.12 1038.55 1056.32C1041.64 1051.88 1043.92 1046.93 1045.27 1041.7C1053.03 1017.16 1058.54 990.306 1050.03 966.006C1030.84 964.759 1008.59 955.727 994.186 971.592C982.551 984.515 977.785 1003.17 979.125 1020.4Z" fill="#3F3D56"/>
<path d="M1068.22 870.258C1065.67 891.914 1061.33 913.477 1061.78 935.282C1061.95 943.698 1062.84 952.041 1062.86 960.494C1062.89 982.445 1057.11 1004.01 1046.11 1023C1044.95 1025.24 1043.4 1027.24 1041.53 1028.93C1037.12 1032.5 1030.47 1032.2 1025.52 1029.47C1020.68 1026.46 1016.75 1022.19 1014.14 1017.12C1000.27 993.36 999.883 964.479 994.391 937.535C990.183 916.922 982.811 896.942 980.149 876.087C978.418 862.661 978.679 848.975 975.923 835.717C975.086 831.713 972.74 825.699 971.195 819.796C969.78 814.527 968.998 809.35 970.45 805.793C973.41 798.513 983.109 801.343 989.42 801.79C1011.64 803.438 1033.96 803.382 1056.18 801.622C1058.38 801.455 1060.87 801.362 1062.41 802.926C1063.09 803.716 1063.6 804.634 1063.9 805.626C1065.67 810.467 1067.02 815.451 1067.94 820.522C1071.02 836.741 1070.16 853.742 1068.22 870.258Z" fill="#FABDBD"/>
<g opacity="0.1">
<path opacity="0.1" d="M1059.66 801.622C1058.51 801.501 1057.36 801.501 1056.22 801.622C1045.57 802.479 1034.9 802.907 1024.25 802.963C1036.05 802.988 1047.86 802.541 1059.66 801.622Z" fill="black"/>
<path opacity="0.1" d="M1029.28 1029.47C1024.44 1026.46 1020.51 1022.19 1017.9 1017.12C1004.03 993.36 1003.64 964.479 998.151 937.535C993.944 916.922 986.572 896.942 983.91 876.087C982.179 862.661 982.439 848.975 979.684 835.717C978.846 831.713 976.501 825.699 974.955 819.796C973.541 814.527 972.759 809.35 974.211 805.793C974.827 804.335 975.866 803.095 977.193 802.232C978.52 801.369 980.075 800.924 981.657 800.952C976.947 800.635 972.349 801.194 970.487 805.793C969.035 809.35 969.817 814.527 971.232 819.796C972.777 825.699 975.123 831.713 975.961 835.717C978.716 848.975 978.455 862.661 980.187 876.087C982.849 896.96 990.221 916.94 994.428 937.535C999.92 964.479 1000.31 993.397 1014.18 1017.12C1016.79 1022.19 1020.72 1026.46 1025.55 1029.47C1028.53 1031.11 1031.93 1031.8 1035.31 1031.44C1033.19 1031.16 1031.15 1030.49 1029.28 1029.47V1029.47Z" fill="black"/>
</g>
<path d="M1138.61 984.459C1127.44 1006.8 1129.3 1038.46 1129.3 1038.46C1131.16 1112.94 1101.38 1269.36 1101.38 1269.36H1075.32C1075.32 1269.36 1071.59 1096.18 1075.32 1081.29C1079.04 1066.39 1073.45 1014.25 1067.87 941.632C1063.72 887.632 1075.02 838.696 1081.09 817.227C1083.17 809.778 1084.62 805.7 1084.62 805.7C1084.62 805.7 1127.44 742.39 1151.64 772.183C1157.23 779.11 1160.19 793.094 1161.21 810.747C1164.53 868.992 1147.17 967.31 1138.61 984.459Z" fill="#FABDBD"/>
<path opacity="0.1" d="M1161.21 810.746C1160.19 793.094 1157.26 779.091 1151.64 772.183C1146.24 765.554 1139.91 763.543 1133.36 764.418C1138.44 765.261 1142.99 768.045 1146.06 772.183C1151.64 779.11 1154.6 793.094 1155.63 810.746C1158.94 868.992 1141.59 967.31 1133.03 984.459C1121.86 1006.8 1123.72 1038.46 1123.72 1038.46C1125.58 1112.94 1095.79 1269.36 1095.79 1269.36H1101.38C1101.38 1269.36 1131.16 1112.94 1129.3 1038.46C1129.3 1038.46 1127.44 1006.8 1138.61 984.459C1147.17 967.31 1164.53 868.992 1161.21 810.746Z" fill="black"/>
<path d="M1061.76 1262.56C1059.68 1264.19 1057.88 1266.15 1056.44 1268.37C1053.11 1274.66 1057.84 1282.19 1062.9 1287.2C1067.96 1292.2 1074.07 1297.57 1074.07 1304.7C1074.07 1310.43 1069.73 1315.35 1064.87 1318.4C1062.27 1320.04 1058.99 1322.13 1059.53 1325.22C1059.72 1326 1060.05 1326.74 1060.52 1327.4C1064.69 1333.78 1072.08 1337.53 1079.56 1338.94C1087.04 1340.36 1094.77 1339.74 1102.38 1339.13C1103.52 1339.17 1104.64 1338.78 1105.51 1338.05C1106.06 1337.31 1106.36 1336.4 1106.35 1335.48C1106.72 1331.53 1106.48 1327.36 1108.21 1323.8C1110.63 1318.94 1116.2 1316.47 1119.38 1312.11C1123.85 1306.15 1123.23 1297.86 1121.54 1290.62C1117.82 1274.85 1109.53 1256.86 1097.1 1245.93C1082.69 1233.38 1071.39 1253.49 1061.76 1262.56Z" fill="#3F3D56"/>
<path d="M1118.17 323.982C1128.56 308.452 1125.86 286.741 1115.25 271.285C1104.64 255.83 1087.58 246.11 1069.99 239.835C1046.27 231.381 1020.12 228.495 995.75 234.845C976.351 239.891 958.927 250.449 940.645 258.605C908.303 273.039 873.137 280.038 837.734 279.087C798.435 277.989 755.376 267.915 722.406 289.403C662.052 328.674 688.897 435.557 631.801 479.335C616.405 491.14 597.025 496.298 579.898 505.404C562.771 514.509 546.538 530.356 546.947 549.758C547.134 559.069 551.229 567.951 556.256 575.827C577.664 609.773 617.689 630.777 657.77 630.386C697.851 629.995 736.964 608.674 760.067 575.865C765.857 567.653 770.958 558.51 779.354 553.036C796.108 542.049 818.187 549.74 838.181 551.378C882.693 555.009 927.223 521.585 936.084 477.733C939.808 459.02 939.156 436.656 954.217 424.906C966.373 415.428 983.482 417.458 998.896 415.838C1027.08 412.915 1049.33 395.355 1064.63 372.415C1071.65 361.894 1072.47 349.325 1082.04 341.039C1092.35 331.933 1108.3 338.655 1118.17 323.982Z" fill="#3F3D56"/>
<g opacity="0.1">
<path opacity="0.1" d="M800.502 282.681C816.827 283.129 833.154 281.881 849.221 278.957C844.79 279.087 840.322 279.087 835.873 278.957C805.026 278.101 771.87 271.732 743.089 279.404C762.078 279.59 781.718 282.16 800.502 282.681Z" fill="black"/>
<path opacity="0.1" d="M742.084 556.741C733.688 562.216 728.587 571.358 722.797 579.57C705.002 604.554 678.993 622.488 649.319 630.237C651.497 630.33 653.675 630.386 655.872 630.367C695.99 629.976 735.065 608.656 758.168 575.846C763.958 567.634 769.059 558.491 777.455 553.017L778.907 552.123C765.764 550.317 752.863 549.684 742.084 556.741Z" fill="black"/>
<path opacity="0.1" d="M1113.37 271.229C1102.77 255.849 1085.7 246.054 1068.11 239.779C1044.39 231.325 1018.24 228.439 993.869 234.789C993.311 234.919 992.771 235.087 992.231 235.236C1006.06 236.007 1019.71 238.792 1032.74 243.503C1050.33 249.778 1067.4 259.573 1078 274.954C1088.59 290.334 1091.31 312.195 1080.92 327.65C1071.05 342.379 1055.1 335.657 1044.65 344.726C1035.09 353.012 1034.27 365.581 1027.25 376.101C1014.09 395.783 995.768 411.481 972.963 417.439C980.801 416.508 989.066 416.62 996.885 415.801C1025.07 412.877 1047.32 395.318 1062.62 372.377C1069.64 361.857 1070.46 349.288 1080.03 341.001C1090.47 331.933 1106.42 338.655 1116.29 323.926C1126.7 308.396 1124 286.61 1113.37 271.229Z" fill="black"/>
<path opacity="0.1" d="M961.533 419.525C946.212 421.126 929.103 419.115 916.854 428.593C901.793 440.343 902.519 462.706 898.722 481.42C892.187 514.137 865.64 541.118 834.123 551.155L836.338 551.36C880.85 554.991 925.38 521.567 934.242 477.715C937.965 459.001 937.313 436.637 952.374 424.888C955.833 422.3 959.758 420.403 963.934 419.302C963.097 419.32 962.333 419.45 961.533 419.525Z" fill="black"/>
</g>
<path d="M1411.34 257.32C1411.34 257.32 1366.66 346.699 1351.77 380.217C1336.88 413.734 1200.98 464.01 1182.36 465.872C1177.37 466.557 1172.72 468.798 1169.07 472.277C1158.55 481.588 1152.57 497.527 1152.57 497.527C1152.57 497.527 1160.02 547.803 1150.71 631.596C1150.53 633.216 1150.36 634.836 1150.21 636.401C1142.09 716.134 1159.09 734.941 1159.09 734.941C1159.09 734.941 978.511 803.838 984.096 714.459C985.846 686.323 985.585 665.765 983.854 648.578C981.959 630.984 978.381 613.612 973.168 596.701C968.756 581.265 963.488 564.338 958.033 541.286C955.408 529.784 951.948 518.489 947.682 507.489C947.552 507.154 947.422 506.819 947.31 506.502C938.002 483.394 928.694 475.927 923.37 473.506C918.342 471.319 913.552 468.624 909.072 465.462C891.871 453.042 854.955 425.204 822.078 392.32C777.399 347.63 732.72 241.492 732.72 241.492C732.72 241.492 719.688 180.044 749.474 129.768C779.261 79.4918 766.229 228.458 766.229 228.458C766.229 228.458 820.217 301.079 833.248 334.596C839.95 351.839 850.598 360.665 859.311 365.246C873.705 372.74 887.486 381.357 900.527 391.017C909.341 397.679 918.603 403.726 928.247 409.116C949.06 420.288 973.987 432.895 994.763 436.209C998.006 436.745 1001.29 437.025 1004.57 437.047C1006.13 437.097 1007.68 436.787 1009.1 436.141C1010.52 435.495 1011.78 434.531 1012.77 433.323C1018.35 426.75 1018.22 412.598 1016.94 400.96C1016.25 394.931 1015.23 388.945 1013.88 383.028C1013.88 383.028 1074.39 344.856 1072.52 391.408C1072.23 396.552 1072.71 401.71 1073.94 406.714C1074.93 411.307 1077.12 415.554 1080.29 419.022C1083.46 422.49 1087.49 425.054 1091.98 426.452C1099.24 428.583 1106.93 428.833 1114.32 427.178C1116.62 426.785 1118.85 426.024 1120.91 424.925C1126.49 421.201 1182.34 404.442 1199.1 402.58C1215.85 400.718 1299.62 359.752 1299.62 359.752L1390.84 233.131C1390.84 233.131 1388.98 158.649 1426.22 128.855C1463.45 99.0622 1411.34 257.32 1411.34 257.32Z" fill="#FABDBD"/>
<g opacity="0.1">
<path opacity="0.1" d="M1150.21 625.228C1148.58 640.192 1147.87 655.24 1148.07 670.29C1148.25 660.459 1148.91 649.23 1150.21 636.401C1150.36 634.836 1150.53 633.216 1150.71 631.596C1153.97 602.92 1155.52 574.075 1155.37 545.215C1155.08 570.347 1153.53 595.448 1150.71 620.424C1150.6 622.044 1150.36 623.664 1150.21 625.228Z" fill="black"/>
<path opacity="0.1" d="M1015.82 381.837C1014.57 382.563 1013.96 383.01 1013.96 383.01C1015.77 390.975 1016.96 399.068 1017.53 407.217C1017.91 398.719 1017.33 390.207 1015.82 381.837V381.837Z" fill="black"/>
<path opacity="0.1" d="M767.104 218.347C768.016 205.312 769.375 181.943 769.115 161.162C768.798 188.944 766.322 217.285 766.322 217.285L767.104 218.347Z" fill="black"/>
<path opacity="0.1" d="M984.226 712.28C984.226 713.006 984.226 713.732 984.096 714.459C978.511 803.838 1159.09 734.941 1159.09 734.941C1156.98 732.089 1155.38 728.887 1154.38 725.482C1127.18 735.165 990.5 780.19 984.226 712.28Z" fill="black"/>
<path opacity="0.1" d="M1411.34 246.147C1411.34 246.147 1366.66 335.527 1351.77 369.044C1336.88 402.561 1200.98 452.837 1182.36 454.7C1177.37 455.384 1172.72 457.626 1169.07 461.105C1158.55 470.415 1152.57 486.355 1152.57 486.355C1152.57 486.355 1153.02 489.39 1153.56 495.162C1155.65 490.377 1161.01 479.391 1169.07 472.277C1172.72 468.798 1177.37 466.557 1182.36 465.872C1200.98 464.01 1336.88 413.734 1351.77 380.217C1366.66 346.699 1411.34 257.32 1411.34 257.32C1411.34 257.32 1442.82 161.702 1439.36 133.101C1436.49 169.747 1411.34 246.147 1411.34 246.147Z" fill="black"/>
<path opacity="0.1" d="M983.854 637.406C981.959 619.812 978.381 602.44 973.168 585.529C968.756 570.092 963.488 553.166 958.033 530.114C955.407 518.612 951.948 507.316 947.682 496.317C947.552 495.982 947.422 495.647 947.31 495.33C938.002 472.222 928.694 464.755 923.369 462.334C918.342 460.147 913.552 457.451 909.072 454.29C891.871 441.87 854.954 414.032 822.078 381.148C777.399 336.458 732.72 230.32 732.72 230.32C731.068 221.36 730.147 212.28 729.964 203.171C729.51 216.006 730.433 228.854 732.72 241.492C732.72 241.492 777.399 347.63 822.078 392.32C854.954 425.204 891.871 453.042 909.072 465.462C913.587 468.63 918.415 471.326 923.481 473.506C928.787 475.927 938.076 483.394 947.422 506.502C947.533 506.819 947.664 507.154 947.794 507.489C952.041 518.49 955.482 529.786 958.089 541.286C963.544 564.338 968.812 581.265 973.224 596.701C978.436 613.612 982.015 630.984 983.91 648.579C984.692 656.362 985.157 664.834 985.287 674.368C985.513 662.03 985.034 649.69 983.854 637.406Z" fill="black"/>
</g>
<path d="M1168.23 556.518C1165.39 561.218 1162.9 566.122 1160.78 571.191C1157.97 579.012 1157.95 587.521 1157.43 595.807C1156.69 607.436 1154.92 618.976 1152.15 630.293C1151.7 632.377 1151.07 634.42 1150.28 636.401C1149.73 637.734 1149 638.986 1148.11 640.125C1147.11 641.339 1145.95 642.399 1144.64 643.272C1142.65 644.604 1140.53 645.757 1138.33 646.716C1112.42 658.82 1084.16 669.508 1055.88 665.337C1043.93 663.247 1032.36 659.354 1021.57 653.792C1011.33 648.821 999.752 642.918 989.141 647.052C987.513 647.878 985.757 648.426 983.947 648.672C983.597 648.678 983.248 648.646 982.905 648.579C979.405 647.908 979.405 636.103 978.604 632.621C975.551 619.251 975.086 608.414 973.261 596.794C972.292 590.369 970.791 584.035 968.775 577.857C961.328 555.326 959.076 531.305 959.076 507.694C959.076 506.521 950.698 507.694 947.906 507.582C947.198 507.582 946.808 507.471 946.975 507.229C947.137 506.997 947.324 506.785 947.534 506.596C948.508 505.804 949.647 505.238 950.866 504.938L953.063 504.287C964.568 501.028 977.264 499.669 985.865 491.569C994.8 483.208 997.034 469.857 996.643 457.642C996.532 453.713 994.614 444.179 994.931 436.265C998.174 436.801 1001.45 437.081 1004.74 437.103C1006.3 437.153 1007.85 436.843 1009.27 436.197C1010.69 435.551 1011.94 434.587 1012.93 433.379C1016.04 439.393 1018.73 445.615 1020.97 452C1024.14 459.783 1026.56 467.976 1031.2 475.015C1038.64 486.485 1052.38 494.027 1066.05 492.872C1079.71 491.718 1092.42 481.215 1094.86 467.734C1097 455.91 1092.03 438.891 1092.15 426.601C1099.41 428.732 1107.1 428.982 1114.48 427.327C1114.8 428.086 1115.07 428.863 1115.29 429.655C1119.47 444.03 1125.06 460.528 1139.11 465.63C1148.2 468.907 1158.94 466.449 1167.34 471.216C1167.98 471.587 1168.6 471.998 1169.2 472.445C1171.14 473.887 1172.81 475.658 1174.13 477.678C1177.58 483.373 1179.63 489.806 1180.11 496.447C1182.26 517.209 1178.12 538.137 1168.23 556.518V556.518Z" fill="#3B82F6"/>
<path opacity="0.1" d="M1073.94 406.695C1064.65 410.276 1054.65 411.62 1044.75 410.621C1034.85 409.621 1025.32 406.306 1016.94 400.941C1016.25 394.912 1015.23 388.926 1013.88 383.01C1013.88 383.01 1074.39 344.837 1072.52 391.389C1072.23 396.533 1072.71 401.691 1073.94 406.695V406.695Z" fill="black"/>
<path d="M1051.1 407.217C1086.05 407.217 1114.39 378.872 1114.39 343.906C1114.39 308.941 1086.05 280.596 1051.1 280.596C1016.14 280.596 987.801 308.941 987.801 343.906C987.801 378.872 1016.14 407.217 1051.1 407.217Z" fill="#FABDBD"/>
<path d="M940.348 501.251C940.348 501.251 1063.22 423.044 1444.85 506.838C1826.48 590.631 2048.02 523.596 2048.02 523.596V611.114C2048.02 611.114 1619.84 657.665 1456.02 611.114C1292.2 564.562 1058.99 537.711 977.32 609.792L940.348 501.251Z" fill="#F86D70"/>
<path opacity="0.1" d="M940.348 501.251C940.348 501.251 1063.22 423.044 1444.85 506.838C1826.48 590.631 2048.02 523.596 2048.02 523.596V611.114C2048.02 611.114 1619.84 657.665 1456.02 611.114C1292.2 564.562 1058.99 537.711 977.32 609.792L940.348 501.251Z" fill="black"/>
<path d="M944.071 504.975C944.071 504.975 1063.22 426.768 1444.85 510.562C1826.48 594.355 2044.3 527.32 2044.3 527.32L2046.16 607.389C2046.16 607.389 1621.7 653.941 1457.88 607.389C1294.06 560.838 1062.71 528.4 981.043 600.481L944.071 504.975Z" fill="#F86D70"/>
<path d="M899.28 625.265C899.28 625.265 776.412 703.472 394.778 619.679C13.1431 535.886 31.7595 602.92 31.7595 602.92V515.403C31.7595 515.403 219.784 468.851 383.608 515.403C547.432 561.955 780.638 588.806 862.308 516.725L899.28 625.265Z" fill="#F86D70"/>
<path opacity="0.1" d="M899.28 625.265C899.28 625.265 776.412 703.472 394.778 619.679C13.1431 535.886 31.7595 602.92 31.7595 602.92V515.403C31.7595 515.403 219.784 468.851 383.608 515.403C547.432 561.955 780.638 588.806 862.308 516.725L899.28 625.265Z" fill="black"/>
<path d="M895.557 621.541C895.557 621.541 776.412 699.748 394.778 615.955C13.1431 532.162 35.4827 599.196 35.4827 599.196L33.6211 519.127C33.6211 519.127 217.923 472.575 381.746 519.127C545.57 565.679 776.915 598.116 858.585 526.036L895.557 621.541Z" fill="#F86D70"/>
<path d="M996.662 354.39C994.8 342.77 991.933 328.134 1001.65 321.487C1005.12 319.385 1009.12 318.349 1013.17 318.507C1033.3 318.303 1052.53 332.324 1072.26 328.228C1078.54 326.911 1084.31 323.808 1088.87 319.292C1093.43 314.776 1096.58 309.038 1097.96 302.77C1099.34 296.501 1098.87 289.968 1096.63 283.957C1094.38 277.945 1090.44 272.711 1085.29 268.883C1077.53 263.111 1067.72 261.025 1058.23 259.07C1033.26 253.931 1007.2 248.81 982.551 255.346C957.903 261.882 935.377 283.985 937.35 309.346C938.281 321.487 944.462 332.51 950.922 342.863C955.836 350.721 974.974 387.553 984.264 388.112C997.369 388.875 997.947 361.987 996.662 354.39Z" fill="#3F3D56"/>
<path d="M1153.5 703.286C1153.5 703.286 1025.05 734.941 982.234 703.286C982.234 703.286 963.618 775.907 969.203 813.148C969.203 813.148 1060.42 818.735 1069.73 824.321C1069.73 824.321 1071.59 809.424 1080.9 816.873C1080.9 816.873 1112.55 779.631 1170.26 813.148C1170.26 813.148 1181.43 725.631 1153.5 703.286Z" fill="#3B82F6"/>
<path opacity="0.1" d="M1085.33 268.883C1084.01 267.923 1082.62 267.052 1081.18 266.276C1085.02 270.645 1087.65 275.945 1088.8 281.647C1089.95 287.35 1089.59 293.255 1087.74 298.772C1085.9 304.289 1082.64 309.226 1078.29 313.088C1073.94 316.95 1068.65 319.602 1062.95 320.779C1043.22 324.876 1023.99 310.854 1003.87 311.059C999.816 310.9 995.809 311.936 992.343 314.039C982.625 320.686 985.473 335.322 987.335 346.941C988.564 354.539 988.061 381.427 974.992 380.701H974.769C978.362 385.077 981.713 388.037 984.301 388.149C997.332 388.875 997.872 362.08 996.643 354.39C994.782 342.77 991.933 328.134 1001.65 321.487C1005.12 319.385 1009.12 318.349 1013.17 318.508C1033.3 318.303 1052.53 332.324 1072.26 328.228C1078.54 326.911 1084.31 323.808 1088.87 319.292C1093.43 314.776 1096.58 309.038 1097.96 302.77C1099.34 296.501 1098.87 289.968 1096.63 283.957C1094.38 277.945 1090.44 272.711 1085.29 268.883H1085.33Z" fill="black"/>
<g opacity="0.1">
<path opacity="0.1" d="M160.771 180.435C160.771 180.435 21.5763 121.891 3.33234 227.471C3.33234 227.471 -6.1806 243.913 7.0556 257.506C7.0556 257.506 9.9039 250.225 23.3635 257.767C28.1683 260.409 33.2669 262.478 38.5544 263.93C45.6996 265.902 53.2917 265.496 60.1866 262.776C60.1866 262.776 105.964 260.299 144.463 200.396C144.463 200.396 160.957 190.192 161.794 186.375L134.205 188.237C134.205 188.237 136.309 208.44 124.897 220.563C124.897 220.563 135.043 189.224 130.165 188.33C129.179 188.144 115.589 189.95 115.589 189.95C115.589 189.95 119.107 225.069 100.696 243.243C100.696 243.243 117.785 207.509 110.339 190.583L89.9913 194.512C89.9913 194.512 95.5762 231.456 75.4333 252.963C75.4333 252.963 91.9833 214.976 85.5979 195.667L66.088 202.221C66.088 202.221 70.7979 238.383 53.9501 256.221C53.9501 256.221 68.657 210.396 61.7317 204.083C61.7317 204.083 44.1952 211.196 40.4347 215.256C40.4347 215.256 43.2271 241.325 32.5041 250.635C32.5041 250.635 39.0943 218.98 35.8364 217.676C35.8364 217.676 15.4516 233.02 9.25233 246.259C9.25233 246.259 16.9967 226.037 33.2674 214.604C33.2674 214.604 19.603 212.295 9.06617 218.011C9.06617 218.011 16.1218 204.586 38.2007 210.954C38.2007 210.954 54.5645 199.633 57.8409 199.782C57.8409 199.782 36.9534 190.471 21.8556 191.607C21.8556 191.607 38.0332 182.297 62.9604 197.864L82.3958 190.825C82.3958 190.825 55.4208 176.99 41.8867 177.046C41.8867 177.046 59.8701 170.1 87.4595 189.466L107.36 185.388C107.36 185.388 85.0207 171.702 69.9601 168.518C69.9601 168.518 88.0366 165.669 113.113 184.457L126.74 183.302C126.74 183.302 110.246 173.601 105.257 171.236C100.268 168.871 100.491 167.326 100.491 167.326C112.366 169.388 123.433 174.713 132.455 182.707C132.455 182.707 160.64 182.167 160.771 180.435Z" fill="#3B82F6"/>
</g>
<g opacity="0.1">
<path opacity="0.1" d="M155.632 75.4884C155.632 75.4884 106.225 -38.6008 35.3152 13.7235C35.3152 13.7235 20.2918 18.0807 20.4221 33.6477C20.4221 33.6477 26.2676 30.9476 29.9537 43.0884C31.3318 47.3998 33.206 51.5365 35.5386 55.4153C38.6236 60.6325 43.3217 64.7043 48.9237 67.016V67.016C48.9237 67.016 77.5184 91.6326 134.559 77.9836C134.559 77.9836 150.178 81.3353 152.859 79.5291L135.415 64.8932C135.415 64.8932 125.176 78.0953 111.437 78.7471C111.437 78.7471 135.322 65.8988 132.921 62.5843C132.436 61.9139 123.352 55.2477 123.352 55.2477C123.352 55.2477 105.424 78.1139 84.2575 78.4677C84.2575 78.4677 114.77 66.9601 119.982 52.678L105.666 43.3677C105.666 43.3677 87.9063 68.487 63.7237 69.7905C63.7237 69.7905 95.1852 56.756 102.39 41.5615L87.0685 34.3366C87.0685 34.3366 69.2713 58.5436 49.1471 59.456C49.1471 59.456 83.9782 40.6118 83.4383 32.9214C83.4383 32.9214 68.9735 27.149 64.3938 27.4842C64.3938 27.4842 51.2321 44.5222 39.4852 44.038C39.4852 44.038 61.4339 28.9739 60.2238 26.3483C60.2238 26.3483 39.3735 23.8532 28.1479 28.2104C28.1479 28.2104 44.2696 20.6131 60.4472 23.1083C60.4472 23.1083 53.6522 13.9283 44.1765 11.3773C44.1765 11.3773 56.0165 7.41104 65.5108 23.7787C65.5108 23.7787 81.6698 26.3669 83.55 28.3035C83.55 28.3035 76.4758 10.8186 66.7954 2.94206C66.7954 2.94206 81.6884 6.66622 87.6456 30.0725L103.19 36.9808C103.19 36.9808 95.0549 13.3883 86.8824 5.73517C86.8824 5.73517 101.533 11.8428 106.895 39.0663L121.025 47.9856C121.025 47.9856 115.533 27.1304 108.421 16.74C108.421 16.74 120.783 25.3242 124.99 50.7787L133.74 57.8546C133.74 57.8546 129.458 42.6973 127.838 38.4518C126.219 34.2063 127.243 33.4242 127.243 33.4242C133.113 41.4215 136.65 50.8902 137.463 60.778C137.463 60.778 154.627 76.4567 155.632 75.4884Z" fill="#3B82F6"/>
</g>
</g>
<defs>
<clipPath id="clip0_7:89">
<rect width="2048" height="1363" fill="white"/>
</clipPath>
</defs>
</svg>
