<?xml version="1.0" standalone="no"?>
<!DOCTYPE svg PUBLIC "-//W3C//DTD SVG 20010904//EN"
 "http://www.w3.org/TR/2001/REC-SVG-20010904/DTD/svg10.dtd">
<svg version="1.0" xmlns="http://www.w3.org/2000/svg"
 width="203.000000pt" height="203.000000pt" viewBox="0 0 203.000000 203.000000"
 preserveAspectRatio="xMidYMid meet">
<metadata>
Created by potrace 1.14, written by Peter Selinger 2001-2017
</metadata>
<g transform="translate(0.000000,203.000000) scale(0.100000,-0.100000)"
fill="#000000" stroke="none">
<path d="M1225 2023 c-143 -40 -188 -241 -76 -342 89 -80 226 -63 296 37 26
38 30 52 30 112 0 60 -4 73 -31 111 -18 24 -47 52 -65 62 -34 19 -118 30 -154
20z"/>
<path d="M635 1734 c-87 -21 -117 -31 -165 -57 -62 -33 -145 -94 -175 -129
-77 -89 -97 -120 -102 -156 -7 -49 13 -81 64 -108 64 -34 118 -21 170 43 111
138 205 181 350 160 45 -6 51 -10 45 -25 -7 -19 -198 -359 -467 -832 -89 -157
-175 -307 -190 -335 -74 -130 -78 -148 -46 -201 35 -58 132 -81 178 -42 14 11
83 113 83 122 0 4 176 308 200 346 5 8 27 47 49 85 69 122 50 117 192 47 184
-90 180 -77 58 -151 -156 -95 -176 -110 -188 -139 -20 -50 4 -130 47 -158 45
-30 93 -22 179 31 200 123 366 239 384 269 29 45 20 101 -23 140 -77 72 -199
158 -271 192 l-36 17 58 111 c67 128 169 317 175 323 0 0 34 -5 74 -12 199
-34 364 19 513 165 106 103 133 147 124 200 -16 94 -148 130 -213 57 -121
-136 -184 -176 -288 -185 -89 -7 -173 21 -304 100 -67 40 -165 86 -220 103
-55 16 -217 28 -255 19z"/>
</g>
</svg>
